<svg width="770" height="186" viewBox="0 0 770 186" fill="none" xmlns="http://www.w3.org/2000/svg">
<path fill-rule="evenodd" clip-rule="evenodd" d="M194 182.89V132.89V2.89001H284H309C344.9 2.89001 374 31.99 374 67.89C374 90.94 362.01 111.18 343.92 122.72L374 182.89H284H194Z" fill="#1F6BDE"/>
<path d="M0 3H40V73H60.25L114 3H164.5L95.25 93L164.5 183H114L60.25 113H40V183H0V3Z" fill="#1F6BDE"/>
<path d="M504.95 0C512.45 0 519.53 1.5 526.2 4.5C532.87 7.33 538.7 11.25 543.7 16.25C548.7 21.25 552.62 27.08 555.45 33.75C558.45 40.42 559.95 47.5 559.95 55V59H519.95V55C519.95 50.83 518.45 47.33 515.45 44.5C512.62 41.5 509.12 40 504.95 40H456.45C451.78 40 447.87 41.67 444.7 45C441.53 48.17 439.95 52 439.95 56.5C439.95 61.17 441.53 65.08 444.7 68.25C447.87 71.42 451.78 73 456.45 73H503.45C511.28 73 518.62 74.5 525.45 77.5C532.28 80.33 538.28 84.33 543.45 89.5C548.62 94.67 552.62 100.67 555.45 107.5C558.45 114.33 559.95 121.67 559.95 129.5C559.95 137.33 558.45 144.67 555.45 151.5C552.62 158.33 548.62 164.33 543.45 169.5C538.28 174.67 532.28 178.75 525.45 181.75C518.62 184.58 511.28 186 503.45 186H454.95C447.28 186 440.12 184.58 433.45 181.75C426.78 178.92 420.95 175 415.95 170C410.95 165 407.03 159.17 404.2 152.5C401.37 145.83 399.95 138.67 399.95 131V127H439.95V131C439.95 135.17 441.37 138.75 444.2 141.75C447.2 144.58 450.78 146 454.95 146H503.45C507.95 146 511.78 144.42 514.95 141.25C518.28 138.08 519.95 134.17 519.95 129.5C519.95 125 518.28 121.17 514.95 118C511.78 114.67 507.95 113 503.45 113H456.45C448.62 113 441.28 111.58 434.45 108.75C427.62 105.75 421.62 101.67 416.45 96.5C411.28 91.33 407.2 85.33 404.2 78.5C401.37 71.67 399.95 64.33 399.95 56.5C399.95 48.67 401.37 41.33 404.2 34.5C407.2 27.67 411.28 21.67 416.45 16.5C421.62 11.33 427.62 7.33 434.45 4.5C441.28 1.5 448.62 0 456.45 0H504.95Z" fill="#1F6BDE"/>
<path d="M599.9 183V3H639.9V73H729.9V3H769.9V183H729.9V113H639.9V183H599.9Z" fill="#1F6BDE"/>
<path fill-rule="evenodd" clip-rule="evenodd" d="M334.28 151.6C343.13 151.06 350.54 149.45 356.38 147.65L344.6 124.1C341.62 126.72 337.84 129.67 333.35 132.46C321.32 139.92 286.7 140.13 286.7 140.13C286.7 140.13 306.03 153.33 334.28 151.6Z" fill="#1226AA"/>
<path fill-rule="evenodd" clip-rule="evenodd" d="M307.82 155.13C243.46 144.35 233.53 91.62 234.72 73.05C235.92 54.48 252.1 33.51 270.67 29.91C289.24 26.32 300.63 29.91 300.63 29.91C300.63 29.91 291.04 13.13 261.69 11.94C241.93 11.13 201.78 26.92 203.57 79.04C205.33 130.21 261.37 163.34 305.36 166.94C301.65 166.83 297.82 166.61 293.87 166.23C247.39 161.72 209.75 136.81 194 102.26V132.89V182.89H284H374L359.21 153.31C345.92 156.9 328.66 158.63 307.82 155.13Z" fill="#1226AA"/>
<path fill-rule="evenodd" clip-rule="evenodd" d="M332.21 126.29C332.21 126.29 327.24 124.73 322.29 118.51C318.75 114.07 317.17 107.17 317.17 107.17C317.17 107.17 311.77 113.93 302.43 119.73C293.08 125.52 266.2 125.69 266.2 125.69C266.2 125.69 281.21 135.95 303.16 134.6C321.77 133.46 332.21 126.29 332.21 126.29Z" fill="#1226AA"/>
</svg>
